<svg width="36" height="36" viewBox="0 0 36 36" fill="none" xmlns="http://www.w3.org/2000/svg">
<path d="M11.3962 15.98C13.5998 15.98 15.3862 14.1936 15.3862 11.99C15.3862 9.78637 13.5998 8 11.3962 8C9.19262 8 7.40625 9.78637 7.40625 11.99C7.40625 14.1936 9.19262 15.98 11.3962 15.98Z" fill="white"/>
<path d="M3 25.5995C3 20.9653 6.7557 18.542 11.3973 18.542C16.0388 18.542 19.7945 20.9653 19.7945 25.5995" fill="white"/>
<path d="M23.8865 15.98C26.0901 15.98 27.8764 14.1936 27.8764 11.99C27.8764 9.78637 26.0901 8 23.8865 8C21.6829 8 19.8965 9.78637 19.8965 11.99C19.8965 14.1936 21.6829 15.98 23.8865 15.98Z" fill="white"/>
<mask id="path-4-outside-1_990_11727" maskUnits="userSpaceOnUse" x="15.0801" y="17.6221" width="19" height="10" fill="black">
<rect fill="white" x="15.0801" y="17.6221" width="19" height="10"/>
<path d="M16.0801 25.6796C16.0801 21.0453 19.8358 18.6221 24.4773 18.6221C29.1189 18.6221 32.8746 21.0453 32.8746 25.6796"/>
</mask>
<path d="M16.0801 25.6796C16.0801 21.0453 19.8358 18.6221 24.4773 18.6221C29.1189 18.6221 32.8746 21.0453 32.8746 25.6796" fill="white"/>
<path d="M15.0801 25.6796C15.0801 26.2319 15.5278 26.6796 16.0801 26.6796C16.6324 26.6796 17.0801 26.2319 17.0801 25.6796H15.0801ZM31.8746 25.6796C31.8746 26.2319 32.3223 26.6796 32.8746 26.6796C33.4269 26.6796 33.8746 26.2319 33.8746 25.6796H31.8746ZM17.0801 25.6796C17.0801 23.6645 17.8817 22.1933 19.1532 21.2014C20.4533 20.1872 22.3174 19.6221 24.4773 19.6221V17.6221C21.9957 17.6221 19.6612 18.2685 17.923 19.6245C16.1563 21.0028 15.0801 23.0604 15.0801 25.6796H17.0801ZM24.4773 19.6221C26.6372 19.6221 28.5014 20.1872 29.8014 21.2014C31.0729 22.1933 31.8746 23.6645 31.8746 25.6796H33.8746C33.8746 23.0604 32.7984 21.0028 31.0316 19.6245C29.2935 18.2685 26.959 17.6221 24.4773 17.6221V19.6221Z" fill="black" mask="url(#path-4-outside-1_990_11727)"/>
</svg>
